<mxfile host="app.diagrams.net" modified="2024-04-11T06:53:39.677Z" agent="Mozilla/5.0 (Macintosh; Intel Mac OS X 10_15_7) AppleWebKit/605.1.15 (KHTML, like Gecko) Version/14.1 Safari/605.1.15" etag="Ex4ANRYxSWD5KZDnPJek" version="24.2.1" type="github">
  <diagram name="第 1 页" id="XcNwPdEnK3u-AzEJXhwV">
    <mxGraphModel dx="1269" dy="889" grid="1" gridSize="10" guides="1" tooltips="1" connect="1" arrows="1" fold="1" page="1" pageScale="1" pageWidth="1169" pageHeight="827" math="0" shadow="0">
      <root>
        <mxCell id="0" />
        <mxCell id="1" parent="0" />
        <mxCell id="mIA80wOqbSesLfAXVL6x-92" value="基本信息采集表" style="rounded=0;whiteSpace=wrap;html=1;" parent="1" vertex="1">
          <mxGeometry x="20" y="90" width="100" height="40" as="geometry" />
        </mxCell>
        <mxCell id="mIA80wOqbSesLfAXVL6x-93" value="个体危险性量表" style="rounded=0;whiteSpace=wrap;html=1;" parent="1" vertex="1">
          <mxGeometry x="20" y="140" width="100" height="40" as="geometry" />
        </mxCell>
        <mxCell id="U2XlUGG6t7AMSphJgOpg-17" value="领悟社会支持量表" style="rounded=0;whiteSpace=wrap;html=1;" vertex="1" parent="1">
          <mxGeometry x="20" y="190" width="100" height="40" as="geometry" />
        </mxCell>
        <mxCell id="U2XlUGG6t7AMSphJgOpg-18" value="冷漠无情特质表" style="rounded=0;whiteSpace=wrap;html=1;" vertex="1" parent="1">
          <mxGeometry x="20" y="240" width="100" height="40" as="geometry" />
        </mxCell>
        <mxCell id="U2XlUGG6t7AMSphJgOpg-19" value="SCL-90" style="rounded=0;whiteSpace=wrap;html=1;" vertex="1" parent="1">
          <mxGeometry x="20" y="290" width="100" height="40" as="geometry" />
        </mxCell>
        <mxCell id="U2XlUGG6t7AMSphJgOpg-20" value="应对方式问卷" style="rounded=0;whiteSpace=wrap;html=1;" vertex="1" parent="1">
          <mxGeometry x="20" y="340" width="100" height="40" as="geometry" />
        </mxCell>
        <mxCell id="U2XlUGG6t7AMSphJgOpg-21" value="PDQ-4+" style="rounded=0;whiteSpace=wrap;html=1;" vertex="1" parent="1">
          <mxGeometry x="20" y="390" width="100" height="40" as="geometry" />
        </mxCell>
        <mxCell id="U2XlUGG6t7AMSphJgOpg-22" value="自尊量表" style="rounded=0;whiteSpace=wrap;html=1;" vertex="1" parent="1">
          <mxGeometry x="20" y="440" width="100" height="40" as="geometry" />
        </mxCell>
        <mxCell id="U2XlUGG6t7AMSphJgOpg-23" value="冲动-预谋性攻击量表" style="rounded=0;whiteSpace=wrap;html=1;" vertex="1" parent="1">
          <mxGeometry x="20" y="490" width="100" height="40" as="geometry" />
        </mxCell>
        <mxCell id="U2XlUGG6t7AMSphJgOpg-24" value="接纳与行动问卷" style="rounded=0;whiteSpace=wrap;html=1;" vertex="1" parent="1">
          <mxGeometry x="130" y="90" width="100" height="40" as="geometry" />
        </mxCell>
        <mxCell id="U2XlUGG6t7AMSphJgOpg-25" value="施瓦茨价值观量表" style="rounded=0;whiteSpace=wrap;html=1;" vertex="1" parent="1">
          <mxGeometry x="130" y="140" width="100" height="40" as="geometry" />
        </mxCell>
        <mxCell id="U2XlUGG6t7AMSphJgOpg-26" value="改造难易程度问卷" style="rounded=0;whiteSpace=wrap;html=1;" vertex="1" parent="1">
          <mxGeometry x="130" y="190" width="100" height="40" as="geometry" />
        </mxCell>
        <mxCell id="U2XlUGG6t7AMSphJgOpg-27" value="COPA-PI" style="rounded=0;whiteSpace=wrap;html=1;" vertex="1" parent="1">
          <mxGeometry x="130" y="240" width="100" height="40" as="geometry" />
        </mxCell>
        <mxCell id="U2XlUGG6t7AMSphJgOpg-28" value="" style="group" vertex="1" connectable="0" parent="1">
          <mxGeometry x="280" y="120" width="980.5" height="400" as="geometry" />
        </mxCell>
        <mxCell id="mIA80wOqbSesLfAXVL6x-25" value="" style="shape=curlyBracket;whiteSpace=wrap;html=1;rounded=1;labelPosition=left;verticalLabelPosition=middle;align=right;verticalAlign=middle;direction=north;" parent="U2XlUGG6t7AMSphJgOpg-28" vertex="1">
          <mxGeometry x="395.25" y="70" width="190" height="20" as="geometry" />
        </mxCell>
        <mxCell id="mIA80wOqbSesLfAXVL6x-32" value="" style="group" parent="U2XlUGG6t7AMSphJgOpg-28" vertex="1" connectable="0">
          <mxGeometry x="437.75" width="110" height="60" as="geometry" />
        </mxCell>
        <mxCell id="mIA80wOqbSesLfAXVL6x-22" value="金堂" style="rounded=0;whiteSpace=wrap;html=1;" parent="mIA80wOqbSesLfAXVL6x-32" vertex="1">
          <mxGeometry width="110.00000000000001" height="30" as="geometry" />
        </mxCell>
        <mxCell id="mIA80wOqbSesLfAXVL6x-29" value="&lt;font style=&quot;font-size: 8px;&quot;&gt;有前科&lt;/font&gt;&lt;div&gt;&lt;font style=&quot;font-size: 8px;&quot;&gt;101&lt;/font&gt;&lt;/div&gt;" style="rounded=0;whiteSpace=wrap;html=1;" parent="mIA80wOqbSesLfAXVL6x-32" vertex="1">
          <mxGeometry y="30" width="55.00000000000001" height="30" as="geometry" />
        </mxCell>
        <mxCell id="mIA80wOqbSesLfAXVL6x-34" value="&lt;font style=&quot;font-size: 8px;&quot;&gt;有前科&lt;/font&gt;&lt;div&gt;&lt;span style=&quot;font-size: 8px;&quot;&gt;580&lt;/span&gt;&lt;/div&gt;" style="rounded=0;whiteSpace=wrap;html=1;" parent="mIA80wOqbSesLfAXVL6x-32" vertex="1">
          <mxGeometry x="55.00000000000001" y="30" width="55.00000000000001" height="30" as="geometry" />
        </mxCell>
        <mxCell id="mIA80wOqbSesLfAXVL6x-36" value="" style="group" parent="U2XlUGG6t7AMSphJgOpg-28" vertex="1" connectable="0">
          <mxGeometry x="317.75" width="110" height="60" as="geometry" />
        </mxCell>
        <mxCell id="mIA80wOqbSesLfAXVL6x-21" value="邑州" style="rounded=0;whiteSpace=wrap;html=1;" parent="mIA80wOqbSesLfAXVL6x-36" vertex="1">
          <mxGeometry width="110.00000000000001" height="30" as="geometry" />
        </mxCell>
        <mxCell id="mIA80wOqbSesLfAXVL6x-28" value="&lt;font style=&quot;font-size: 8px;&quot;&gt;有前科&lt;/font&gt;&lt;div&gt;&lt;span style=&quot;font-size: 8px;&quot;&gt;148&lt;/span&gt;&lt;/div&gt;" style="rounded=0;whiteSpace=wrap;html=1;" parent="mIA80wOqbSesLfAXVL6x-36" vertex="1">
          <mxGeometry y="30" width="55.00000000000001" height="30" as="geometry" />
        </mxCell>
        <mxCell id="mIA80wOqbSesLfAXVL6x-33" value="&lt;font style=&quot;font-size: 8px;&quot;&gt;无前科&lt;/font&gt;&lt;div&gt;&lt;span style=&quot;font-size: 8px;&quot;&gt;491&lt;/span&gt;&lt;/div&gt;" style="rounded=0;whiteSpace=wrap;html=1;" parent="mIA80wOqbSesLfAXVL6x-36" vertex="1">
          <mxGeometry x="55.00000000000001" y="30" width="55.00000000000001" height="30" as="geometry" />
        </mxCell>
        <mxCell id="mIA80wOqbSesLfAXVL6x-37" value="" style="group" parent="U2XlUGG6t7AMSphJgOpg-28" vertex="1" connectable="0">
          <mxGeometry x="557.75" width="110" height="60" as="geometry" />
        </mxCell>
        <mxCell id="mIA80wOqbSesLfAXVL6x-23" value="省女" style="rounded=0;whiteSpace=wrap;html=1;" parent="mIA80wOqbSesLfAXVL6x-37" vertex="1">
          <mxGeometry width="110.00000000000001" height="29.999999999999996" as="geometry" />
        </mxCell>
        <mxCell id="mIA80wOqbSesLfAXVL6x-30" value="&lt;font style=&quot;font-size: 8px;&quot;&gt;有前科&lt;/font&gt;&lt;div&gt;&lt;span style=&quot;font-size: 8px;&quot;&gt;829&lt;/span&gt;&lt;/div&gt;" style="rounded=0;whiteSpace=wrap;html=1;" parent="mIA80wOqbSesLfAXVL6x-37" vertex="1">
          <mxGeometry y="29.999999999999996" width="55.00000000000001" height="29.999999999999996" as="geometry" />
        </mxCell>
        <mxCell id="mIA80wOqbSesLfAXVL6x-35" value="&lt;font style=&quot;font-size: 8px;&quot;&gt;有前科&lt;/font&gt;&lt;div&gt;&lt;span style=&quot;font-size: 8px;&quot;&gt;3772&lt;/span&gt;&lt;/div&gt;" style="rounded=0;whiteSpace=wrap;html=1;" parent="mIA80wOqbSesLfAXVL6x-37" vertex="1">
          <mxGeometry x="55.00000000000001" y="29.999999999999996" width="55.00000000000001" height="29.999999999999996" as="geometry" />
        </mxCell>
        <mxCell id="mIA80wOqbSesLfAXVL6x-38" value="" style="group" parent="U2XlUGG6t7AMSphJgOpg-28" vertex="1" connectable="0">
          <mxGeometry x="437.75" y="100" width="110" height="60" as="geometry" />
        </mxCell>
        <mxCell id="mIA80wOqbSesLfAXVL6x-39" value="合并数据集" style="rounded=0;whiteSpace=wrap;html=1;" parent="mIA80wOqbSesLfAXVL6x-38" vertex="1">
          <mxGeometry width="110.00000000000001" height="30" as="geometry" />
        </mxCell>
        <mxCell id="mIA80wOqbSesLfAXVL6x-40" value="&lt;font style=&quot;font-size: 8px;&quot;&gt;有前科&lt;/font&gt;&lt;div&gt;&lt;span style=&quot;font-size: 8px;&quot;&gt;1078&lt;/span&gt;&lt;/div&gt;" style="rounded=0;whiteSpace=wrap;html=1;" parent="mIA80wOqbSesLfAXVL6x-38" vertex="1">
          <mxGeometry y="30" width="55.00000000000001" height="30" as="geometry" />
        </mxCell>
        <mxCell id="mIA80wOqbSesLfAXVL6x-41" value="&lt;font style=&quot;font-size: 8px;&quot;&gt;无前科&lt;/font&gt;&lt;div&gt;&lt;span style=&quot;font-size: 8px;&quot;&gt;4843&lt;/span&gt;&lt;/div&gt;" style="rounded=0;whiteSpace=wrap;html=1;" parent="mIA80wOqbSesLfAXVL6x-38" vertex="1">
          <mxGeometry x="55.00000000000001" y="30" width="55.00000000000001" height="30" as="geometry" />
        </mxCell>
        <mxCell id="mIA80wOqbSesLfAXVL6x-46" style="edgeStyle=orthogonalEdgeStyle;rounded=0;orthogonalLoop=1;jettySize=auto;html=1;exitX=1;exitY=1;exitDx=0;exitDy=0;" parent="U2XlUGG6t7AMSphJgOpg-28" edge="1">
          <mxGeometry relative="1" as="geometry">
            <mxPoint x="490.25" y="220" as="targetPoint" />
            <mxPoint x="489.75" y="160" as="sourcePoint" />
          </mxGeometry>
        </mxCell>
        <mxCell id="U2XlUGG6t7AMSphJgOpg-1" value="分割数据集" style="edgeLabel;html=1;align=center;verticalAlign=middle;resizable=0;points=[];" vertex="1" connectable="0" parent="mIA80wOqbSesLfAXVL6x-46">
          <mxGeometry x="-0.0098" y="-2" relative="1" as="geometry">
            <mxPoint as="offset" />
          </mxGeometry>
        </mxCell>
        <mxCell id="mIA80wOqbSesLfAXVL6x-49" value="" style="shape=curlyBracket;whiteSpace=wrap;html=1;rounded=1;flipH=1;labelPosition=right;verticalLabelPosition=middle;align=left;verticalAlign=middle;direction=south;" parent="U2XlUGG6t7AMSphJgOpg-28" vertex="1">
          <mxGeometry x="45" y="224" width="890" height="30" as="geometry" />
        </mxCell>
        <mxCell id="mIA80wOqbSesLfAXVL6x-51" value="" style="group" parent="U2XlUGG6t7AMSphJgOpg-28" vertex="1" connectable="0">
          <mxGeometry y="264" width="100" height="60" as="geometry" />
        </mxCell>
        <mxCell id="mIA80wOqbSesLfAXVL6x-52" value="盗窃" style="rounded=0;whiteSpace=wrap;html=1;" parent="mIA80wOqbSesLfAXVL6x-51" vertex="1">
          <mxGeometry width="100.00000000000001" height="30" as="geometry" />
        </mxCell>
        <mxCell id="mIA80wOqbSesLfAXVL6x-53" value="&lt;font style=&quot;font-size: 8px;&quot;&gt;有前科&lt;/font&gt;&lt;div&gt;&lt;span style=&quot;font-size: 8px;&quot;&gt;317&lt;/span&gt;&lt;/div&gt;" style="rounded=0;whiteSpace=wrap;html=1;" parent="mIA80wOqbSesLfAXVL6x-51" vertex="1">
          <mxGeometry y="30" width="50.00000000000001" height="30" as="geometry" />
        </mxCell>
        <mxCell id="mIA80wOqbSesLfAXVL6x-54" value="&lt;font style=&quot;font-size: 8px;&quot;&gt;无前科&lt;/font&gt;&lt;div&gt;&lt;span style=&quot;font-size: 8px;&quot;&gt;316&lt;/span&gt;&lt;/div&gt;" style="rounded=0;whiteSpace=wrap;html=1;" parent="mIA80wOqbSesLfAXVL6x-51" vertex="1">
          <mxGeometry x="50.00000000000001" y="30" width="50.00000000000001" height="30" as="geometry" />
        </mxCell>
        <mxCell id="mIA80wOqbSesLfAXVL6x-55" value="" style="group" parent="U2XlUGG6t7AMSphJgOpg-28" vertex="1" connectable="0">
          <mxGeometry x="110" y="264" width="100" height="60" as="geometry" />
        </mxCell>
        <mxCell id="mIA80wOqbSesLfAXVL6x-56" value="诈骗" style="rounded=0;whiteSpace=wrap;html=1;" parent="mIA80wOqbSesLfAXVL6x-55" vertex="1">
          <mxGeometry width="100.00000000000001" height="30" as="geometry" />
        </mxCell>
        <mxCell id="mIA80wOqbSesLfAXVL6x-57" value="&lt;font style=&quot;font-size: 8px;&quot;&gt;有前科&lt;/font&gt;&lt;div&gt;&lt;span style=&quot;font-size: 8px;&quot;&gt;97&lt;/span&gt;&lt;/div&gt;" style="rounded=0;whiteSpace=wrap;html=1;" parent="mIA80wOqbSesLfAXVL6x-55" vertex="1">
          <mxGeometry y="30" width="50.00000000000001" height="30" as="geometry" />
        </mxCell>
        <mxCell id="mIA80wOqbSesLfAXVL6x-58" value="&lt;font style=&quot;font-size: 8px;&quot;&gt;无前科&lt;/font&gt;&lt;div&gt;&lt;span style=&quot;font-size: 8px;&quot;&gt;1286&lt;/span&gt;&lt;/div&gt;" style="rounded=0;whiteSpace=wrap;html=1;" parent="mIA80wOqbSesLfAXVL6x-55" vertex="1">
          <mxGeometry x="50.00000000000001" y="30" width="50.00000000000001" height="30" as="geometry" />
        </mxCell>
        <mxCell id="mIA80wOqbSesLfAXVL6x-59" value="" style="group" parent="U2XlUGG6t7AMSphJgOpg-28" vertex="1" connectable="0">
          <mxGeometry x="220" y="264" width="100" height="60" as="geometry" />
        </mxCell>
        <mxCell id="mIA80wOqbSesLfAXVL6x-60" value="抢劫" style="rounded=0;whiteSpace=wrap;html=1;" parent="mIA80wOqbSesLfAXVL6x-59" vertex="1">
          <mxGeometry width="100.00000000000001" height="30" as="geometry" />
        </mxCell>
        <mxCell id="mIA80wOqbSesLfAXVL6x-61" value="&lt;font style=&quot;font-size: 8px;&quot;&gt;有前科&lt;/font&gt;&lt;div&gt;&lt;span style=&quot;font-size: 8px;&quot;&gt;144&lt;/span&gt;&lt;/div&gt;" style="rounded=0;whiteSpace=wrap;html=1;" parent="mIA80wOqbSesLfAXVL6x-59" vertex="1">
          <mxGeometry y="30" width="50.00000000000001" height="30" as="geometry" />
        </mxCell>
        <mxCell id="mIA80wOqbSesLfAXVL6x-62" value="&lt;font style=&quot;font-size: 8px;&quot;&gt;无前科&lt;/font&gt;&lt;div&gt;&lt;span style=&quot;font-size: 8px;&quot;&gt;241&lt;/span&gt;&lt;/div&gt;" style="rounded=0;whiteSpace=wrap;html=1;" parent="mIA80wOqbSesLfAXVL6x-59" vertex="1">
          <mxGeometry x="50.00000000000001" y="30" width="50.00000000000001" height="30" as="geometry" />
        </mxCell>
        <mxCell id="mIA80wOqbSesLfAXVL6x-63" value="" style="group" parent="U2XlUGG6t7AMSphJgOpg-28" vertex="1" connectable="0">
          <mxGeometry x="330" y="264" width="100" height="60" as="geometry" />
        </mxCell>
        <mxCell id="mIA80wOqbSesLfAXVL6x-64" value="开设赌场" style="rounded=0;whiteSpace=wrap;html=1;" parent="mIA80wOqbSesLfAXVL6x-63" vertex="1">
          <mxGeometry width="100" height="30" as="geometry" />
        </mxCell>
        <mxCell id="mIA80wOqbSesLfAXVL6x-65" value="&lt;font style=&quot;font-size: 8px;&quot;&gt;有前科&lt;/font&gt;&lt;div&gt;&lt;span style=&quot;font-size: 8px;&quot;&gt;37&lt;/span&gt;&lt;/div&gt;" style="rounded=0;whiteSpace=wrap;html=1;" parent="mIA80wOqbSesLfAXVL6x-63" vertex="1">
          <mxGeometry y="30" width="50" height="30" as="geometry" />
        </mxCell>
        <mxCell id="mIA80wOqbSesLfAXVL6x-66" value="&lt;font style=&quot;font-size: 8px;&quot;&gt;无前科&lt;/font&gt;&lt;div&gt;&lt;span style=&quot;font-size: 8px;&quot;&gt;265&lt;/span&gt;&lt;/div&gt;" style="rounded=0;whiteSpace=wrap;html=1;" parent="mIA80wOqbSesLfAXVL6x-63" vertex="1">
          <mxGeometry x="50" y="30" width="50" height="30" as="geometry" />
        </mxCell>
        <mxCell id="mIA80wOqbSesLfAXVL6x-71" value="" style="group" parent="U2XlUGG6t7AMSphJgOpg-28" vertex="1" connectable="0">
          <mxGeometry x="660" y="264" width="100" height="60" as="geometry" />
        </mxCell>
        <mxCell id="mIA80wOqbSesLfAXVL6x-72" value="故意伤害" style="rounded=0;whiteSpace=wrap;html=1;" parent="mIA80wOqbSesLfAXVL6x-71" vertex="1">
          <mxGeometry width="100.00000000000001" height="30" as="geometry" />
        </mxCell>
        <mxCell id="mIA80wOqbSesLfAXVL6x-73" value="&lt;font style=&quot;font-size: 8px;&quot;&gt;有前科&lt;/font&gt;&lt;div&gt;&lt;span style=&quot;font-size: 8px;&quot;&gt;9&lt;/span&gt;&lt;/div&gt;" style="rounded=0;whiteSpace=wrap;html=1;" parent="mIA80wOqbSesLfAXVL6x-71" vertex="1">
          <mxGeometry y="30" width="50.00000000000001" height="30" as="geometry" />
        </mxCell>
        <mxCell id="U2XlUGG6t7AMSphJgOpg-15" style="edgeStyle=orthogonalEdgeStyle;rounded=0;orthogonalLoop=1;jettySize=auto;html=1;exitX=0;exitY=1;exitDx=0;exitDy=0;" edge="1" parent="mIA80wOqbSesLfAXVL6x-71" source="mIA80wOqbSesLfAXVL6x-74">
          <mxGeometry relative="1" as="geometry">
            <mxPoint x="50.25" y="86" as="targetPoint" />
          </mxGeometry>
        </mxCell>
        <mxCell id="mIA80wOqbSesLfAXVL6x-74" value="&lt;font style=&quot;font-size: 8px;&quot;&gt;无前科&lt;/font&gt;&lt;div&gt;&lt;span style=&quot;font-size: 8px;&quot;&gt;47&lt;/span&gt;&lt;/div&gt;" style="rounded=0;whiteSpace=wrap;html=1;" parent="mIA80wOqbSesLfAXVL6x-71" vertex="1">
          <mxGeometry x="50.00000000000001" y="30" width="50.00000000000001" height="30" as="geometry" />
        </mxCell>
        <mxCell id="mIA80wOqbSesLfAXVL6x-75" value="" style="group" parent="U2XlUGG6t7AMSphJgOpg-28" vertex="1" connectable="0">
          <mxGeometry x="550" y="264" width="100" height="60" as="geometry" />
        </mxCell>
        <mxCell id="mIA80wOqbSesLfAXVL6x-76" value="性相关" style="rounded=0;whiteSpace=wrap;html=1;" parent="mIA80wOqbSesLfAXVL6x-75" vertex="1">
          <mxGeometry width="100.00000000000001" height="30" as="geometry" />
        </mxCell>
        <mxCell id="mIA80wOqbSesLfAXVL6x-77" value="&lt;font style=&quot;font-size: 8px;&quot;&gt;有前科&lt;/font&gt;&lt;div&gt;&lt;span style=&quot;font-size: 8px;&quot;&gt;29&lt;/span&gt;&lt;/div&gt;" style="rounded=0;whiteSpace=wrap;html=1;" parent="mIA80wOqbSesLfAXVL6x-75" vertex="1">
          <mxGeometry y="30" width="50.00000000000001" height="30" as="geometry" />
        </mxCell>
        <mxCell id="mIA80wOqbSesLfAXVL6x-78" value="&lt;font style=&quot;font-size: 8px;&quot;&gt;无前科&lt;/font&gt;&lt;div&gt;&lt;span style=&quot;font-size: 8px;&quot;&gt;213&lt;/span&gt;&lt;/div&gt;" style="rounded=0;whiteSpace=wrap;html=1;" parent="mIA80wOqbSesLfAXVL6x-75" vertex="1">
          <mxGeometry x="50.00000000000001" y="30" width="50.00000000000001" height="30" as="geometry" />
        </mxCell>
        <mxCell id="mIA80wOqbSesLfAXVL6x-81" value="" style="group" parent="U2XlUGG6t7AMSphJgOpg-28" vertex="1" connectable="0">
          <mxGeometry x="440" y="264" width="100" height="60" as="geometry" />
        </mxCell>
        <mxCell id="mIA80wOqbSesLfAXVL6x-82" value="毒品相关" style="rounded=0;whiteSpace=wrap;html=1;" parent="mIA80wOqbSesLfAXVL6x-81" vertex="1">
          <mxGeometry width="100.00000000000001" height="30" as="geometry" />
        </mxCell>
        <mxCell id="mIA80wOqbSesLfAXVL6x-83" value="&lt;font style=&quot;font-size: 8px;&quot;&gt;有前科&lt;/font&gt;&lt;div&gt;&lt;span style=&quot;font-size: 8px;&quot;&gt;401&lt;/span&gt;&lt;/div&gt;" style="rounded=0;whiteSpace=wrap;html=1;" parent="mIA80wOqbSesLfAXVL6x-81" vertex="1">
          <mxGeometry y="30" width="50.00000000000001" height="30" as="geometry" />
        </mxCell>
        <mxCell id="mIA80wOqbSesLfAXVL6x-84" value="&lt;font style=&quot;font-size: 8px;&quot;&gt;无前科&lt;/font&gt;&lt;div&gt;&lt;span style=&quot;font-size: 8px;&quot;&gt;1112&lt;/span&gt;&lt;/div&gt;" style="rounded=0;whiteSpace=wrap;html=1;" parent="mIA80wOqbSesLfAXVL6x-81" vertex="1">
          <mxGeometry x="50.00000000000001" y="30" width="50.00000000000001" height="30" as="geometry" />
        </mxCell>
        <mxCell id="U2XlUGG6t7AMSphJgOpg-3" value="" style="group" vertex="1" connectable="0" parent="U2XlUGG6t7AMSphJgOpg-28">
          <mxGeometry x="770.5" y="264" width="100" height="60" as="geometry" />
        </mxCell>
        <mxCell id="U2XlUGG6t7AMSphJgOpg-4" value="受贿" style="rounded=0;whiteSpace=wrap;html=1;" vertex="1" parent="U2XlUGG6t7AMSphJgOpg-3">
          <mxGeometry width="100.00000000000001" height="30" as="geometry" />
        </mxCell>
        <mxCell id="U2XlUGG6t7AMSphJgOpg-5" value="&lt;font style=&quot;font-size: 8px;&quot;&gt;有前科&lt;/font&gt;&lt;div&gt;&lt;span style=&quot;font-size: 8px;&quot;&gt;0&lt;/span&gt;&lt;/div&gt;" style="rounded=0;whiteSpace=wrap;html=1;" vertex="1" parent="U2XlUGG6t7AMSphJgOpg-3">
          <mxGeometry y="30" width="50.00000000000001" height="30" as="geometry" />
        </mxCell>
        <mxCell id="U2XlUGG6t7AMSphJgOpg-6" value="&lt;font style=&quot;font-size: 8px;&quot;&gt;无前科&lt;/font&gt;&lt;div&gt;&lt;span style=&quot;font-size: 8px;&quot;&gt;538&lt;/span&gt;&lt;/div&gt;" style="rounded=0;whiteSpace=wrap;html=1;" vertex="1" parent="U2XlUGG6t7AMSphJgOpg-3">
          <mxGeometry x="50" y="30" width="50" height="30" as="geometry" />
        </mxCell>
        <mxCell id="U2XlUGG6t7AMSphJgOpg-7" value="" style="group" vertex="1" connectable="0" parent="U2XlUGG6t7AMSphJgOpg-28">
          <mxGeometry x="880.5" y="264" width="100" height="60" as="geometry" />
        </mxCell>
        <mxCell id="U2XlUGG6t7AMSphJgOpg-8" value="非法行医" style="rounded=0;whiteSpace=wrap;html=1;" vertex="1" parent="U2XlUGG6t7AMSphJgOpg-7">
          <mxGeometry width="100.00000000000001" height="30" as="geometry" />
        </mxCell>
        <mxCell id="U2XlUGG6t7AMSphJgOpg-9" value="&lt;font style=&quot;font-size: 8px;&quot;&gt;有前科&lt;/font&gt;&lt;div&gt;&lt;span style=&quot;font-size: 8px;&quot;&gt;0&lt;/span&gt;&lt;/div&gt;" style="rounded=0;whiteSpace=wrap;html=1;" vertex="1" parent="U2XlUGG6t7AMSphJgOpg-7">
          <mxGeometry y="30" width="50.00000000000001" height="30" as="geometry" />
        </mxCell>
        <mxCell id="U2XlUGG6t7AMSphJgOpg-10" value="&lt;font style=&quot;font-size: 8px;&quot;&gt;无前科&lt;/font&gt;&lt;div&gt;&lt;font style=&quot;font-size: 8px;&quot;&gt;168&lt;/font&gt;&lt;/div&gt;" style="rounded=0;whiteSpace=wrap;html=1;" vertex="1" parent="U2XlUGG6t7AMSphJgOpg-7">
          <mxGeometry x="50.00000000000001" y="30" width="50.00000000000001" height="30" as="geometry" />
        </mxCell>
        <mxCell id="U2XlUGG6t7AMSphJgOpg-11" value="" style="shape=curlyBracket;whiteSpace=wrap;html=1;rounded=1;labelPosition=left;verticalLabelPosition=middle;align=right;verticalAlign=middle;direction=north;" vertex="1" parent="U2XlUGG6t7AMSphJgOpg-28">
          <mxGeometry x="807.75" y="330" width="132.75" height="10" as="geometry" />
        </mxCell>
        <mxCell id="U2XlUGG6t7AMSphJgOpg-13" value="由于受贿和非法行医的&lt;div&gt;服刑人员都为无前科人员，&lt;/div&gt;&lt;div&gt;所以未进行讨论分析&lt;/div&gt;" style="text;html=1;align=center;verticalAlign=middle;resizable=0;points=[];autosize=1;strokeColor=none;fillColor=none;" vertex="1" parent="U2XlUGG6t7AMSphJgOpg-28">
          <mxGeometry x="789.1300000000001" y="340" width="170" height="60" as="geometry" />
        </mxCell>
        <mxCell id="U2XlUGG6t7AMSphJgOpg-16" value="数据量太少，&lt;div&gt;无法进行调参等操作&lt;/div&gt;" style="text;html=1;align=center;verticalAlign=middle;resizable=0;points=[];autosize=1;strokeColor=none;fillColor=none;" vertex="1" parent="U2XlUGG6t7AMSphJgOpg-28">
          <mxGeometry x="645" y="350" width="130" height="40" as="geometry" />
        </mxCell>
      </root>
    </mxGraphModel>
  </diagram>
</mxfile>
